<svg width="22" height="22" fill="none" xmlns="http://www.w3.org/2000/svg"><path d="M17.417 14.667a2.75 2.75 0 1 0 0 5.499 2.75 2.75 0 0 0 0-5.5Zm0 3.666a.916.916 0 1 1 0-1.832.916.916 0 0 1 0 1.832ZM8.25 14.667a2.75 2.75 0 1 0 0 5.5 2.75 2.75 0 0 0 0-5.5Zm0 3.666a.916.916 0 1 1 0-1.832.916.916 0 0 1 0 1.832ZM20.167 7.792a5.967 5.967 0 0 0-5.959-5.959h-.458a.916.916 0 0 0-.917.917v4.583h-5.94l-1.145-3.07a.917.917 0 0 0-.862-.596H2.75a.917.917 0 1 0 0 1.833h1.503L5.4 8.59l.468 1.255v.082a5.904 5.904 0 0 0 5.591 3.823h2.75a5.95 5.95 0 0 0 5.959-5.958Zm-3.044 2.915a4.098 4.098 0 0 1-2.915 1.21h-2.75A4.097 4.097 0 0 1 7.645 9.35a.128.128 0 0 1 0-.055l-.073-.128h10.523c-.2.581-.532 1.109-.972 1.54Zm-2.456-3.374V3.667a4.116 4.116 0 0 1 3.666 3.666h-3.666Z" fill="#000"/></svg>