<svg width="22" height="22" fill="none" xmlns="http://www.w3.org/2000/svg"><path d="M12.833 10.083h-.916v-.916a.917.917 0 0 0-1.834 0v.916h-.916a.917.917 0 0 0 0 1.834h.916v.916a.917.917 0 0 0 1.834 0v-.916h.916a.917.917 0 0 0 0-1.834Zm5.647-5.5a5.766 5.766 0 0 0-7.48-.54 5.747 5.747 0 0 0-7.48 8.69l5.5 5.545a2.75 2.75 0 0 0 3.887 0l5.5-5.545a5.746 5.746 0 0 0 .073-8.15Zm-1.293 6.839-5.5 5.5a.916.916 0 0 1-1.301 0l-5.5-5.5a3.933 3.933 0 0 1 0-5.5 3.914 3.914 0 0 1 5.5 0 .917.917 0 0 0 1.302 0 3.914 3.914 0 0 1 5.5 0 3.932 3.932 0 0 1 0 5.518v-.018Z" fill="#000"/></svg>