<svg width="22" height="22" fill="none" xmlns="http://www.w3.org/2000/svg"><path d="m19.7 9.34-.918-.503-8.25-4.584h-.1a.973.973 0 0 0-.175-.055H9.918a1.073 1.073 0 0 0-.183.055h-.1l-8.25 4.584a.917.917 0 0 0 0 1.595l2.282 1.265v4.345a2.75 2.75 0 0 0 2.75 2.75h7.333a2.75 2.75 0 0 0 2.75-2.75v-4.345l1.833-1.027v2.622a.917.917 0 1 0 1.834 0v-3.154a.916.916 0 0 0-.468-.797Zm-5.033 6.702a.916.916 0 0 1-.917.916H6.417a.917.917 0 0 1-.917-.916v-3.328l4.134 2.292.138.055h.082c.076.01.153.01.23 0 .075.01.152.01.229 0h.082a.433.433 0 0 0 .138-.055l4.134-2.292v3.328Zm-4.584-2.879L3.722 9.625l6.361-3.538 6.362 3.538-6.362 3.538Z" fill="#000"/></svg>