<svg xmlns="http://www.w3.org/2000/svg" width="22" height="22" style="enable-background:new 0 0 22 22" xml:space="preserve"><path d="M18 21c-1.1 0-2-.9-2-2s.9-2 2-2 2 .9 2 2-.9 2-2 2zM8 21c-1.1 0-2-.9-2-2s.9-2 2-2 2 .9 2 2-.9 2-2 2zm9.1-6h-8c-.6 0-1.2-.2-1.7-.6-.5-.4-.8-.9-.9-1.5L5.1 6.3v-.1L4.5 3H2c-.6 0-1-.4-1-1s.4-1 1-1h3.3c.5 0 .9.3 1 .8L6.9 5H20c.3 0 .6.1.8.4.2.2.2.5.2.8l-1.3 6.7c-.1.6-.5 1.1-.9 1.5-.5.4-1.1.6-1.7.6zM7.3 7l1.1 5.5c0 .1.1.3.2.3.2.2.3.2.5.2h8c.2 0 .3 0 .4-.1.1-.1.2-.2.2-.3L18.8 7H7.3z"/></svg>