<svg width="22" height="22" fill="none" xmlns="http://www.w3.org/2000/svg"><path d="M11 1.833a9.167 9.167 0 0 0-7.7 4.208 9.167 9.167 0 0 0 13.438 12.1A9.167 9.167 0 0 0 11 1.833Zm1.833 2.072a7.333 7.333 0 0 1 5.262 5.262 8.965 8.965 0 0 0-4.345 1.265 14.394 14.394 0 0 0-2.2-2.026 9.222 9.222 0 0 0 1.283-4.501ZM11 3.667a7.242 7.242 0 0 1-1.045 3.73c-.137-.073-.266-.155-.403-.22a14.227 14.227 0 0 0-3.75-1.347A7.333 7.333 0 0 1 11 3.667ZM4.583 7.48c1.438.2 2.83.646 4.116 1.32l.12.073A7.269 7.269 0 0 1 3.666 11a7.333 7.333 0 0 1 .916-3.52Zm4.584 10.615a7.333 7.333 0 0 1-5.262-5.262 9.075 9.075 0 0 0 6.49-2.942c.663.49 1.277 1.042 1.833 1.65a9.168 9.168 0 0 0-3.061 6.554Zm1.833.238a7.334 7.334 0 0 1 2.347-5.362c.055.073.11.137.155.21a12.833 12.833 0 0 1 1.687 3.832A7.27 7.27 0 0 1 11 18.333Zm5.692-2.75a14.67 14.67 0 0 0-1.65-3.437l-.192-.23A7.27 7.27 0 0 1 18.333 11a7.333 7.333 0 0 1-1.64 4.583Z" fill="#000"/></svg>