<svg version="1.1" id="Слой_1" xmlns="http://www.w3.org/2000/svg" x="0" y="0" width="14" height="14" style="enable-background:new 0 0 14 14" xml:space="preserve"><style>.st0{fill:#898989}</style><path class="st0" d="M1.5 6.4V4.7c.2 0 .3-.1.3-.3 0-.2-.1-.3-.3-.3-.8 0-1.5.6-1.5 1.4v.6c0 .5.4.9.9.9h.6c.2 0 .3-.1.3-.3 0-.2-.2-.3-.3-.3zM12.5 4.1c-.2 0-.3.1-.3.3 0 .2.1.3.3.3v1.8c-.2 0-.3.1-.3.3 0 .2.1.3.3.3h.6c.5-.1.9-.5.9-1v-.6c0-.8-.7-1.4-1.5-1.4zM5 12.2c-.2 0-.3.1-.3.3H2.9c0-.2-.1-.3-.3-.3s-.3.1-.3.3v.6c0 .5.4.9.9.9h1.2c.5 0 .9-.4.9-.9v-.6c-.1-.1-.2-.3-.3-.3zM11.4 12.2c-.2 0-.3.1-.3.3H9.3c0-.2-.1-.3-.3-.3s-.3.1-.3.3v.6c0 .5.4.9.9.9h1.2c.5 0 .9-.4.9-.9v-.6c0-.1-.2-.3-.3-.3z"/><path class="st0" d="M11.4 0H2.6c-.8 0-1.4.7-1.4 1.5v9.9c0 .8.7 1.5 1.5 1.5h8.7c.8 0 1.5-.7 1.5-1.5V1.5C12.8.7 12.2 0 11.4 0zM3.8 1.2h6.4c.5 0 .9.4.9.9s-.4.9-.9.9H3.8c-.5-.1-.9-.5-.9-1 0-.4.4-.8.9-.8zm0 9.9c-.5 0-.9-.4-.9-.9s.4-.9.9-.9.9.4.9.9-.4.9-.9.9zm6.4 0c-.5 0-.9-.4-.9-.9s.4-.9.9-.9.9.4.9.9-.4.9-.9.9zm1.5-3.8c0 .5-.4.9-.9.9H3.2c-.5 0-.9-.4-.9-.9V4.4c0-.5.4-.9.9-.9h7.6c.5 0 .9.4.9.9v2.9z"/></svg>