<svg version="1.1" id="Слой_1" xmlns="http://www.w3.org/2000/svg" xmlns:xlink="http://www.w3.org/1999/xlink" x="0" y="0" width="14" height="14" style="enable-background:new 0 0 14 14" xml:space="preserve"><style>.st1{fill:#898989}</style><defs><path id="SVGID_1_" d="M0 0h14v14H0z"/></defs><clipPath id="SVGID_2_"><use xlink:href="#SVGID_1_" style="overflow:visible"/></clipPath><g style="clip-path:url(#SVGID_2_)"><path class="st1" d="M9.8 2.6c-.7 0-1.3-.6-1.3-1.3C8.5.6 9.1 0 9.8 0c.7 0 1.3.6 1.3 1.3 0 .7-.5 1.3-1.3 1.3zM1.6 12.5C3.2 10.2 5 7.2 5.3 6.6c0-.1.1-.2.1-.3.3-.6.7-1.3 1.1-2-.4 0-.8.1-1.2.1-.3.5-.6 1.1-.8 1.6-.5.9-1.8.1-1.4-.7.4-.7.8-2.3 1.7-2.4 1-.1 1.9-.2 2.9-.2h.1c.8-.2 1.6.3 1.8 1.1.5 1 1.2 1.9 2.4 2.2.9.3.5 1.7-.4 1.5-1.2-.3-2-1-2.7-1.9-.4.7-.8 1.4-1.1 2.1.8.6 1.5 1.2 2.1 2 .2.2.2.4.1.6v.2c-.2.9-.5 1.9-.7 2.8-.3 1-1.8.7-1.6-.3.2-.9.5-1.8.7-2.7-.6-.7-1.2-1.2-2-1.7-.2 0-.3-.1-.4-.3-1 1.6-2 3.8-3.1 5.2-.6.8-1.9-.2-1.3-1z"/></g></svg>