<svg width="17" height="13" fill="none" xmlns="http://www.w3.org/2000/svg"><path fill-rule="evenodd" clip-rule="evenodd" d="M13.015 2.402c1.146 1.08 1.854 2.585 1.854 4.23 0 2.752-1.972 5.08-4.65 5.786l.488.582h4.027C16.14 11.57 17 9.65 17 7.556 17 4.08 14.641 1.114 11.356 0L8.5 8.977 5.644 0C2.36 1.114 0 4.081 0 7.556 0 9.65.86 11.57 2.266 13h4.018l.497-.582h-.008c-2.679-.706-4.65-3.034-4.65-5.785 0-1.646.708-3.142 1.853-4.23.11-.126.329-.192.54-.159.21.042.412.183.513.49l3.15 9.9c.102.009.211.009.321.009.11 0 .21 0 .32-.009l3.15-9.908a.704.704 0 0 1 .473-.473.664.664 0 0 1 .572.15Z" fill="#fff"/></svg>