<svg width="12" height="17" fill="none" xmlns="http://www.w3.org/2000/svg"><path fill-rule="evenodd" clip-rule="evenodd" d="M3.662.468A5.875 5.875 0 0 1 6 0c.83 0 1.609.156 2.338.468.729.313 1.364.738 1.906 1.276.542.538.97 1.166 1.284 1.883.315.718.472 1.488.472 2.312 0 1.116-.314 2.322-.943 3.617a28.668 28.668 0 0 1-2.067 3.598c-.75 1.102-1.435 2.02-2.057 2.75L6 17l-.933-1.096c-.622-.73-1.308-1.648-2.057-2.75A28.664 28.664 0 0 1 .943 9.556C.314 8.261 0 7.056 0 5.94c0-.824.157-1.594.472-2.312a6.049 6.049 0 0 1 1.284-1.883A6.063 6.063 0 0 1 3.662.468Zm.41 7.254a2.663 2.663 0 0 0 1.929.778c.752 0 1.395-.26 1.928-.778a2.526 2.526 0 0 0 .799-1.878c0-.733-.267-1.36-.8-1.878a2.663 2.663 0 0 0-1.927-.778c-.753 0-1.396.259-1.929.778a2.526 2.526 0 0 0-.799 1.878c0 .733.267 1.359.8 1.878Z" fill="#fff"/></svg>