<svg fill="none" xmlns="http://www.w3.org/2000/svg" viewBox="0 0 56 60"><path fill-rule="evenodd" clip-rule="evenodd" d="M56 0H0v56h24l4 4 4-4h24V0z" fill="#03473F"/><path d="M25.37 22.175l13.953 5.117-.537-1.213-13.71-5.006-10.239 18.834.056.517L29 40.87l.951-.451-14.183-.537 9.6-17.707z" fill="#fff"/><path d="M38.56 25.544l-.45-1.072-13.585-5.453L14.72 37.82l.07 1.094 10.07-18.591 13.7 5.22z" fill="#fff"/><path d="M37.895 23.987l-.418-.92-13.385-5.81-9.533 18.275.048.993 9.777-18.164 13.511 5.626z" fill="#fff"/><path d="M37.144 22.288l-.377-.98-13.195-5.952-9.151 18.252.102 1.245 9.287-18.647 13.334 6.082z" fill="#fff"/><path d="M36.478 20.732l-.225-.536L23.226 14l-8.933 17.47.058 1.044 9.037-18.018 13.09 6.236zM20.11 17.724L14.156 29.81l.047.729 7.086-14.26-1.18 1.445zM17.55 20.705l-3.488 7.383.015.84 4.347-9.291-.873 1.068zM15.182 23.544l-1.267 2.832.068.83 2.336-5.046-1.137 1.384zM13.813 25.13l.046.73.449-1.248-.495.519z" fill="#fff"/><path d="M25.954 24.381l14.067 4.62-.451-1.072-13.92-4.701-8.74 15.797 14.543.677 1.406-.645-14.693-.858 7.788-13.818z" fill="#fff"/><path d="M26.603 26.89l14.265 4.002-.525-1.163-14.065-4.093-6.634 11.481 14.758 1.162 1.554-.727-14.877-1.455 5.524-9.207z" fill="#fff"/><path d="M27.242 29.349l14.432 3.494-.462-1.123-14.359-3.666-3.968 6.95 14.72 1.75 1.902-.901-14.775-2.267 2.51-4.237z" fill="#fff"/><path d="M42.125 33.914l-14.558-3.31-.915 1.392 14.557 3.048 1.152-.543-.236-.587z" fill="#fff"/></svg>