<svg width="20" height="24" fill="none" xmlns="http://www.w3.org/2000/svg"><path d="M19.333 8.43a1.53 1.53 0 0 0-.07-.315V8.01c-.056-.12-.13-.23-.221-.327l-7-7a1.248 1.248 0 0 0-.327-.221.373.373 0 0 0-.105 0 1.027 1.027 0 0 0-.385-.129H4.167a3.5 3.5 0 0 0-3.5 3.5v16.334a3.5 3.5 0 0 0 3.5 3.5h11.666a3.5 3.5 0 0 0 3.5-3.5V8.43Zm-7-4.118 3.022 3.021H13.5a1.167 1.167 0 0 1-1.167-1.166V4.312ZM17 20.167a1.167 1.167 0 0 1-1.167 1.166H4.167A1.167 1.167 0 0 1 3 20.167V3.833a1.167 1.167 0 0 1 1.167-1.166H10v3.5a3.5 3.5 0 0 0 3.5 3.5H17v10.5Zm-4.328-7.829-3.839 3.85-1.505-1.516a1.171 1.171 0 1 0-1.656 1.656l2.333 2.334a1.166 1.166 0 0 0 1.657 0l4.666-4.667a1.171 1.171 0 1 0-1.656-1.657Z" fill="#2C3036"/></svg>