<svg width="16" height="16" fill="none" xmlns="http://www.w3.org/2000/svg"><g clip-path="url(#clip0)" fill="#fff"><path d="M12.667.667v1.775A2.329 2.329 0 0011 4.667a2.33 2.33 0 001.667 2.224v8.442a.667.667 0 001.333 0V6.891a2.329 2.329 0 001.667-2.224A2.33 2.33 0 0014 2.442V.667a.667.667 0 10-1.333 0zm1.666 4a1.001 1.001 0 01-2 0 1.001 1.001 0 012 0zM2 .667v1.775A2.33 2.33 0 00.333 4.667 2.33 2.33 0 002 6.89v8.442a.667.667 0 001.333 0V6.891A2.33 2.33 0 005 4.667a2.33 2.33 0 00-1.667-2.225V.667A.666.666 0 102 .667zm1.667 4a1.001 1.001 0 01-2 0 1.001 1.001 0 012 0zM7.333.667v8.442a2.33 2.33 0 00-1.667 2.224 2.33 2.33 0 001.667 2.225v1.775a.667.667 0 001.333 0v-1.775a2.33 2.33 0 001.667-2.225A2.33 2.33 0 008.666 9.11V.667a.666.666 0 10-1.333 0zM9 11.333a1.001 1.001 0 01-2 0 1.001 1.001 0 012 0z"/></g><defs><clipPath id="clip0"><path fill="#fff" transform="rotate(-90 8 8)" d="M0 0h16v16H0z"/></clipPath></defs></svg>