<svg xmlns="http://www.w3.org/2000/svg" viewBox="0 0 37 36"><path d="M14.75 10.915l17.809 6.831-.685-1.62-17.497-6.684-13.07 25.146.072.69 18.006.595 1.214-.602-18.101-.717 12.252-23.64z" fill="#191D23"/><path d="M31.586 15.412l-.576-1.431L13.672 6.7 1.159 31.801l.088 1.46 12.855-24.82 17.485 6.97z" fill="#191D23"/><path d="M30.737 13.333l-.534-1.228L13.119 4.35.952 28.747l.061 1.325 12.48-24.25 17.244 7.51z" fill="#191D23"/><path d="M29.778 11.066l-.48-1.31L12.456 1.81.777 26.177l.13 1.663L12.76 2.945l17.018 8.12z" fill="#191D23"/><path d="M28.928 8.987l-.287-.715L12.014 0 .613 23.324l.075 1.393L12.22.662l16.707 8.325zM8.037 4.971L.439 21.107l.06.974L9.541 3.043 8.037 4.97zM4.771 8.952L.319 18.808l.019 1.123L5.886 7.525 4.771 8.952zM1.747 12.741L.131 16.523l.087 1.109 2.98-6.738-1.45 1.847zM0 14.86l.06.974.572-1.667L0 14.86z" fill="#191D23"/><path d="M15.496 13.86l17.954 6.168-.576-1.431-17.765-6.278L3.953 33.411l18.562.903 1.794-.861-18.753-1.146 9.94-18.448z" fill="#191D23"/><path d="M16.325 17.21l18.207 5.341L33.86 21l-17.95-5.465-8.469 15.33 18.836 1.55 1.984-.97L9.275 29.5l7.05-12.292z" fill="#191D23"/><path d="M17.14 20.492l18.42 4.664-.59-1.498-18.326-4.895-5.064 9.278 18.786 2.337 2.428-1.204-18.857-3.025 3.203-5.657z" fill="#191D23"/><path d="M36.135 26.587l-18.58-4.42-1.167 1.86 18.579 4.067 1.47-.724-.302-.783z" fill="#191D23"/></svg>