<svg xmlns="http://www.w3.org/2000/svg" width="38" height="28" style="enable-background:new 0 0 38 28" xml:space="preserve"><path d="M22.2 6.8c0-1.8.7-3.4 2-4.7C25.4.9 27 .2 28.9.2c2.6 0 4.7.9 6.2 2.7 1.5 1.9 2.2 4.1 2.2 6.6 0 3.8-1.1 7.3-3.4 10.3-2.3 3.2-4.9 5.9-7.9 8l-3.7-3.7c1-1 2.1-2.1 3.4-3.5 1.3-1.4 2-2.8 2-4.3 0-1-.4-1.8-1.3-2.5-1-.7-1.9-1.6-2.8-2.6-.9-1.1-1.4-2.6-1.4-4.4zM.7 6.8c0-1.8.7-3.4 2-4.7C4 .8 5.5.2 7.5.2c2.6 0 4.7.9 6.2 2.7 1.5 1.9 2.2 4.1 2.2 6.6 0 3.8-1.1 7.3-3.4 10.3-2.3 3.2-4.9 5.8-7.8 7.9L1 24c1-1 2.1-2.1 3.4-3.5 1.3-1.4 2-2.8 2-4.3 0-1-.4-1.8-1.3-2.5-1-.7-1.9-1.6-2.8-2.6C1.2 10.1.7 8.6.7 6.8z" style="fill:#088675"/></svg>