<svg xmlns="http://www.w3.org/2000/svg" xml:space="preserve" viewBox="0 0 18 22"><path fill="#FFFFFF" d="M15 4.9c-.1-.1-.3-.1-.4 0-.1.1-.1.3 0 .4 1.5 1.5 2.3 3.5 2.3 5.7 0 4.4-3.6 8-8 8s-8-3.6-8-8 3.5-8 7.9-8L7.3 4.5c-.1.1-.1.3 0 .4.1.1.1.1.2.1s.1 0 .2-.1l2.1-2.2L7.7.6c-.1-.1-.3-.1-.4 0-.1.1-.1.3 0 .4l1.4 1.4C4.1 2.5.5 6.3.5 11c0 4.7 3.8 8.6 8.5 8.6s8.5-3.8 8.5-8.6c0-2.4-.9-4.5-2.5-6.1z"/><path fill="#FFFFFF" d="M9 19.7C4.2 19.7.4 15.8.4 11c0-4.6 3.5-8.4 8-8.7L7.2 1.1C7 .9 7 .6 7.2.5c.1-.1.2-.1.3-.1.1 0 .2 0 .3.1l2.3 2.3L7.8 5c-.2.2-.4.2-.6 0-.2-.1-.2-.4 0-.6l1.3-1.3c-4.1.2-7.4 3.7-7.4 7.9 0 4.3 3.5 7.9 7.8 7.9s7.8-3.5 7.8-7.9c0-2.1-.8-4.1-2.3-5.6-.2-.2-.2-.4 0-.6.2-.2.4-.2.6 0 1.6 1.6 2.5 3.8 2.5 6.2.1 4.7-3.8 8.7-8.5 8.7zM7.5.6s-.1.1 0 0c-.1.1-.1.2-.1.3L9 2.5h-.3C4.2 2.6.6 6.3.6 10.9c0 4.6 3.7 8.4 8.3 8.4s8.4-3.8 8.4-8.4c0-2.2-.9-4.4-2.4-6h-.2v.2c1.5 1.5 2.4 3.6 2.4 5.8 0 4.5-3.6 8.2-8.1 8.2S.9 15.4.9 10.9c0-4.5 3.6-8.1 8-8.2h.4L7.4 4.6v.2h.2l2-2.1L7.5.6c.1.1 0 0 0 0z"/></svg>
