<svg version="1.1" id="Слой_1" xmlns="http://www.w3.org/2000/svg" x="0" y="0" xml:space="preserve" viewBox="0 0 16 16"><style>.st0{fill:#087466}</style><path class="st0" d="M7.3 13.4c-3.4 0-6.1-2.7-6.1-6.1C1.2 4 4 1.2 7.3 1.2c3.4 0 6.1 2.7 6.1 6.1 0 3.4-2.7 6.1-6.1 6.1zm0-10.6c-2.5 0-4.6 2.1-4.6 4.6 0 2.5 2.1 4.6 4.6 4.6 2.5 0 4.6-2.1 4.6-4.6 0-2.6-2-4.6-4.6-4.6z"/><path class="st0" d="M14 14.8c-.2 0-.4-.1-.5-.2l-2.9-2.9c-.3-.3-.3-.8 0-1.1.3-.3.8-.3 1.1 0l2.9 2.9c.3.3.3.8 0 1.1-.2.1-.4.2-.6.2z"/></svg>