<svg width="54" height="53" viewBox="0 0 54 53" fill="none" xmlns="http://www.w3.org/2000/svg">
<path d="M21.8593 16.1258L48.2522 26.2194L47.2373 23.8266L21.3066 13.9504L1.93786 51.1018L2.04344 52.1205L28.7286 53L30.528 52.1113L3.70159 51.0526L21.8593 16.1258Z" fill="#191D23"/>
<path d="M46.8106 22.7698L45.9575 20.6559L20.2628 9.89919L1.71554 46.9864L1.84717 49.1439L20.8977 12.4738L46.8106 22.7698Z" fill="#191D23"/>
<path d="M45.5518 19.6988L44.7605 17.8844L19.4429 6.42622L1.41136 42.4715L1.50185 44.4295L19.9956 8.60157L45.5518 19.6988Z" fill="#191D23"/>
<path d="M44.1309 16.349L43.4191 14.4142L18.4608 2.67444L1.15068 38.676L1.34402 41.133L18.9106 4.35074L44.1309 16.349Z" fill="#191D23"/>
<path d="M42.8721 13.278L42.4455 12.2211L17.8055 0L0.908181 34.4607L1.01924 36.5184L18.1113 0.97761L42.8721 13.278Z" fill="#191D23"/>
<path d="M11.9109 7.34488L0.650566 31.1846L0.738325 32.623L14.1409 4.4955L11.9109 7.34488Z" fill="#191D23"/>
<path d="M7.07058 13.2255L0.472126 27.7883L0.500901 29.4468L8.72326 11.1185L7.07058 13.2255Z" fill="#191D23"/>
<path d="M2.58968 18.8245L0.193611 24.4125L0.322496 26.0505L4.74023 16.0954L2.58968 18.8245Z" fill="#191D23"/>
<path d="M0 21.9555L0.0877589 23.3939L0.936752 20.9315L0 21.9555Z" fill="#191D23"/>
<path d="M22.9648 20.4764L49.573 29.5896L48.72 27.4758L22.3916 18.2012L5.85777 49.3626L33.3672 50.6975L36.0265 49.4246L8.23458 47.7315L22.9648 20.4764Z" fill="#191D23"/>
<path d="M24.1933 25.426L51.176 33.3183L50.1817 31.0254L23.5789 22.9513L11.0294 45.5987L38.9448 47.8906L41.8839 46.4564L13.745 43.5861L24.1933 25.426Z" fill="#191D23"/>
<path d="M25.4016 30.2757L52.6997 37.1672L51.8261 34.9536L24.6665 27.7216L17.1615 41.4299L45.0028 44.8813L48.6016 43.1039L20.6547 38.6338L25.4016 30.2757Z" fill="#191D23"/>
<path d="M53.5529 39.281L26.0162 32.7505L24.2867 35.4974L51.8207 41.5083L54 40.4378L53.5529 39.281Z" fill="#191D23"/>
</svg>
