<svg width="78" height="78" fill="none" xmlns="http://www.w3.org/2000/svg"><path d="M73.18 75.37h-2.191V6.574c0-.726-.589-1.315-1.315-1.315h-24.54c-.725 0-1.314.589-1.314 1.315v5.697h-2.629V6.573c0-.726-.589-1.315-1.314-1.315H34.18V1.315a1.315 1.315 0 1 0-2.63 0v3.943h-5.696c-.726 0-1.314.589-1.314 1.315v5.697h-3.944c-.726 0-1.315.588-1.315 1.314V24.54H8.326c-.726 0-1.315.589-1.315 1.315V75.37h-2.19a1.314 1.314 0 1 0 0 2.629H73.18a1.314 1.314 0 1 0 0-2.63ZM27.169 7.889h11.393v4.382H27.169V7.888ZM22.786 75.37h-.876V73.18a1.314 1.314 0 1 0-2.629 0v2.19h-.877V70.99h4.383v4.382Zm8.765-33.742v33.742h-6.135v-5.697c0-.726-.589-1.314-1.315-1.314H17.09c-.726 0-1.315.588-1.315 1.314v5.697H9.64V27.169h21.91v14.46Zm1.314-17.09H21.91V14.9h21.91v25.416h-9.64v-4.382h3.944a1.314 1.314 0 1 0 0-2.63H34.18v-4.382h3.944a1.314 1.314 0 1 0 0-2.629H34.18v-.438c0-.726-.589-1.315-1.315-1.315ZM56.09 75.371H34.18V42.944h21.91V75.37Zm12.27 0h-9.64V39.876a1.315 1.315 0 1 0-2.63 0v.438h-2.63v-.438a1.315 1.315 0 1 0-2.628 0v.438H46.45V7.888h21.91V75.37Z" fill="#2C3036"/><path d="M39.877 72.742c.725 0 1.314-.589 1.314-1.315V46.888a1.314 1.314 0 1 0-2.63 0v24.54c0 .725.59 1.314 1.316 1.314ZM45.135 72.742c.726 0 1.315-.589 1.315-1.315V46.888a1.315 1.315 0 1 0-2.63 0v24.54c0 .725.589 1.314 1.315 1.314ZM50.393 72.742c.726 0 1.315-.589 1.315-1.315V46.888a1.315 1.315 0 1 0-2.63 0v24.54c0 .725.59 1.314 1.315 1.314ZM52.146 16.652c.726 0 1.315-.589 1.315-1.315v-1.753a1.314 1.314 0 1 0-2.63 0v1.753c0 .726.589 1.315 1.315 1.315ZM57.404 16.652c.727 0 1.315-.589 1.315-1.315v-1.753a1.314 1.314 0 1 0-2.629 0v1.753c0 .726.588 1.315 1.314 1.315ZM62.663 16.652c.726 0 1.315-.589 1.315-1.315v-1.753a1.314 1.314 0 1 0-2.63 0v1.753c0 .726.589 1.315 1.315 1.315ZM52.146 25.416c.726 0 1.315-.589 1.315-1.315v-1.753a1.315 1.315 0 1 0-2.63 0v1.753c0 .726.589 1.315 1.315 1.315ZM57.404 25.416c.727 0 1.315-.589 1.315-1.315v-1.753a1.314 1.314 0 1 0-2.629 0v1.753c0 .726.588 1.315 1.314 1.315ZM62.663 25.416c.726 0 1.315-.589 1.315-1.315v-1.753a1.314 1.314 0 1 0-2.63 0v1.753c0 .726.589 1.315 1.315 1.315ZM52.146 34.18c.726 0 1.315-.588 1.315-1.315v-1.753a1.314 1.314 0 1 0-2.63 0v1.753c0 .726.589 1.315 1.315 1.315ZM57.404 34.18c.727 0 1.315-.588 1.315-1.315v-1.753a1.314 1.314 0 1 0-2.629 0v1.753c0 .726.588 1.315 1.314 1.315ZM62.663 34.18c.726 0 1.315-.588 1.315-1.315v-1.753a1.314 1.314 0 1 0-2.63 0v1.753c0 .726.589 1.315 1.315 1.315ZM15.337 37.685c.726 0 1.315-.588 1.315-1.314v-1.753a1.314 1.314 0 1 0-2.63 0v1.753c0 .726.59 1.314 1.315 1.314ZM20.596 37.685c.726 0 1.314-.588 1.314-1.314v-1.753a1.314 1.314 0 1 0-2.63 0v1.753c0 .726.59 1.314 1.316 1.314ZM25.854 37.685c.726 0 1.315-.588 1.315-1.314v-1.753a1.314 1.314 0 1 0-2.63 0v1.753c0 .726.589 1.314 1.315 1.314ZM15.337 46.45c.726 0 1.315-.589 1.315-1.315v-1.753a1.314 1.314 0 1 0-2.63 0v1.753c0 .726.59 1.314 1.315 1.314ZM20.596 46.45c.726 0 1.314-.589 1.314-1.315v-1.753a1.314 1.314 0 1 0-2.63 0v1.753c0 .726.59 1.314 1.316 1.314ZM25.854 46.45c.726 0 1.315-.589 1.315-1.315v-1.753a1.315 1.315 0 1 0-2.63 0v1.753c0 .726.589 1.314 1.315 1.314ZM15.337 55.213c.726 0 1.315-.588 1.315-1.314v-1.753a1.315 1.315 0 1 0-2.63 0v1.753c0 .726.59 1.314 1.315 1.314ZM20.596 55.213c.726 0 1.314-.588 1.314-1.314v-1.753a1.314 1.314 0 1 0-2.63 0v1.753c0 .726.59 1.314 1.316 1.314ZM25.854 55.213c.726 0 1.315-.588 1.315-1.314v-1.753a1.315 1.315 0 1 0-2.63 0v1.753c0 .726.589 1.314 1.315 1.314ZM15.337 63.978c.726 0 1.315-.589 1.315-1.315V60.91a1.314 1.314 0 1 0-2.63 0v1.753c0 .726.59 1.315 1.315 1.315ZM20.596 63.978c.726 0 1.314-.589 1.314-1.315V60.91a1.314 1.314 0 1 0-2.63 0v1.753c0 .726.59 1.315 1.316 1.315ZM25.854 63.978c.726 0 1.315-.589 1.315-1.315V60.91a1.315 1.315 0 1 0-2.63 0v1.753c0 .726.589 1.315 1.315 1.315ZM62.663 42.944c.726 0 1.315-.588 1.315-1.315v-1.752a1.314 1.314 0 1 0-2.63 0v1.752c0 .726.589 1.315 1.315 1.315ZM62.663 51.708c.726 0 1.315-.588 1.315-1.315V48.64a1.314 1.314 0 1 0-2.63 0v1.753c0 .726.589 1.315 1.315 1.315ZM62.663 60.472c.726 0 1.315-.588 1.315-1.315v-1.752a1.314 1.314 0 1 0-2.63 0v1.752c0 .727.589 1.315 1.315 1.315ZM62.663 69.236c.726 0 1.315-.588 1.315-1.315V66.17a1.314 1.314 0 1 0-2.63 0v1.752c0 .726.589 1.315 1.315 1.315ZM39.438 20.596c0-.727-.589-1.315-1.314-1.315H27.607a1.314 1.314 0 1 0 0 2.629h10.517c.726 0 1.314-.588 1.314-1.314Z" fill="#2C3036"/></svg>