<svg width="78" height="78" fill="none" xmlns="http://www.w3.org/2000/svg"><path d="M74.344 73.125H68.25V31.562a1.219 1.219 0 0 0-1.219-1.218H59.72a1.219 1.219 0 0 0-1.219 1.218v41.563h-2.438V41.312a1.219 1.219 0 0 0-1.218-1.218H47.53a1.219 1.219 0 0 0-1.218 1.218v31.813h-2.438V37.656a1.218 1.218 0 0 0-1.219-1.218h-7.312a1.218 1.218 0 0 0-1.219 1.218v35.469h-2.438V42.531a1.218 1.218 0 0 0-1.218-1.218h-7.313a1.218 1.218 0 0 0-1.218 1.218v30.594H19.5V47.406a1.218 1.218 0 0 0-1.219-1.218H10.97a1.218 1.218 0 0 0-1.219 1.218v25.719H3.656a1.219 1.219 0 1 0 0 2.438h70.688a1.218 1.218 0 1 0 0-2.438Zm-62.156 0v-24.5h4.874v24.5h-4.875Zm12.187 0V43.75h4.875v29.375h-4.875Zm12.188 0v-34.25h4.874v34.25h-4.874Zm12.187 0V42.531h4.875v30.594H48.75Zm12.188 0V32.781h4.874v40.344h-4.874Z" fill="#2C3036"/><path d="M6.094 40.969c.164 0 .327-.034.479-.099l5.365-2.3a3.654 3.654 0 0 0 6.34-2.625l5.788-2.315a3.653 3.653 0 0 0 6.399-2.56l5.789-2.315a3.65 3.65 0 0 0 5.695-.254l5.586 1.676a3.657 3.657 0 1 0 6.996-1.651l6.84-6.438a3.653 3.653 0 0 0 5.176-4.87l4.14-3.897v.835a1.219 1.219 0 1 0 2.438 0V10.5a1.219 1.219 0 0 0-1.219-1.219H68.25a1.219 1.219 0 1 0 0 2.438h.583l-4.145 3.9a3.655 3.655 0 0 0-4.799 4.517l-7.028 6.615a3.648 3.648 0 0 0-4.624 1.092l-5.586-1.676a3.656 3.656 0 0 0-7.304.325l-5.789 2.316a3.654 3.654 0 0 0-6.398 2.56l-5.79 2.315a3.654 3.654 0 0 0-6.393 2.648L5.613 38.63a1.218 1.218 0 0 0 .48 2.339Zm57.28-23.157a1.22 1.22 0 1 1 0 2.439 1.22 1.22 0 0 1 0-2.439Zm-12.187 10.97a1.22 1.22 0 1 1 0 2.438 1.22 1.22 0 0 1 0-2.439ZM39 25.124a1.22 1.22 0 1 1 0 2.438 1.22 1.22 0 0 1 0-2.438ZM26.812 30a1.22 1.22 0 1 1 0 2.438 1.22 1.22 0 0 1 0-2.438Zm-12.187 4.875a1.22 1.22 0 1 1 0 2.438 1.22 1.22 0 0 1 0-2.438Z" fill="#2C3036"/></svg>