<svg version="1.1" id="Слой_1" xmlns="http://www.w3.org/2000/svg" x="0" y="0" width="40" height="44" xml:space="preserve"><style>.st1{fill:#fff}</style><path d="M40 0H0v40h16l4 4 4-4h16V0z" fill-rule="evenodd" clip-rule="evenodd" fill="#087466"/><path class="st1" d="M29.2 23.6l-2.6.4c-.4-1.7-.4-4.1-.3-5.1l2-.1c1.6 0 2.5-2.5 1-3.4l-2.6-1.8-.4-1.3c-.1-.3-.5-.4-.8-.4-1.1 0-2.1.7-2.5 1.7l-1.5 3.7-6 .1-1.5-2.6c-.2-.3-.5-.4-.8-.2-.8.5-1.3 1.5-1 2.4l.7 2.5c-.1.6-.4 2.9-.5 4.3l-1.7-.2c-.4 0-.7.2-.7.6v2.6c0 .3.2.5.5.6 3.6.5 8.6 1.4 15.9.4l3-.4c.3 0 .5-.3.5-.6v-2.6c0-.4-.3-.6-.7-.6zm-15.8-7.5l1.4 2.2c.1.2.3.3.5.3l6.7-.1c.2 0 .4-.2.5-.4l1.6-4.1c.2-.5.6-.8 1.2-.9.1.3.3 1.2.6 1.4l2.8 2c.3.1.3.5.2.6-.2.4-.2.6-.6.6l-2.5.1c-.3 0-.5.2-.6.5 0 .2-.2 3.4.3 5.8-.6.1-1.2.1-1.9.2 0-1.6.2-3.2-3-3.4-3.5-.1-5.1.1-4.9 3.3-.7-.1-1.4-.1-2-.2.1-1.5.5-4.4.5-4.4 0-.2 0 0-.8-2.8-.2-.3-.2-.5 0-.7zm9 8.3c-1.9.1-3.8.1-5.6 0v-1c-.1-1.5 2.4-1.1 3.8-1.2 1.9 0 1.9.8 1.9 1.2v1zm6.3 1.8c-5.6 1.1-13.4.8-17.5 0v-1.4c3.6.7 12 1.1 17.5 0v1.4z"/><path class="st1" d="M25.2 16.3c.8 0 .8-1.2 0-1.2-.7.1-.7 1.2 0 1.2z"/></svg>