<svg version="1.1" id="Слой_1" xmlns="http://www.w3.org/2000/svg" x="0" y="0" width="40" height="44" xml:space="preserve"><style>.st1{fill:#fff}</style><path d="M40 0H0v40h16l4 4 4-4h16V0z" fill-rule="evenodd" clip-rule="evenodd" fill="#087466"/><path class="st1" d="M28.2 13.5c-2.2-2.2-5.8-2.4-8.2-.4-3.8-3.3-10.1-.4-10 4.7 0 1.6.6 3.2 1.8 4.3l8.2 8.2 8.2-8.2c2.4-2.3 2.4-6.3 0-8.6zm-.8 7.8L20 28.6l-7.4-7.4c-.9-.9-1.4-2.2-1.4-3.5 0-4.6 5.9-6.6 8.8-3.1 4.6-5 12 1.6 7.4 6.7z"/><path class="st1" d="M21.8 18.2v-2.3h-3.5v2.3H16v3.5h2.3V24h3.5v-2.3h2.3v-3.5h-2.3zm1.1 2.4h-2.3v2.3h-1.2v-2.3h-2.3v-1.2h2.3V17h1.2v2.3h2.3v1.3z"/></svg>