<svg xmlns="http://www.w3.org/2000/svg" xmlns:xlink="http://www.w3.org/1999/xlink" width="40" height="44"><path d="M40 0H0v40h16l4 4 4-4h16V0z" fill-rule="evenodd" clip-rule="evenodd" fill="#087466"/><defs><path id="a" d="M10 10h20v20H10z"/></defs><clipPath id="b"><use xlink:href="#a" overflow="visible"/></clipPath><g clip-path="url(#b)"><path d="M29.6 16.9l-9.4-4.1c-.2-.1-.3-.1-.5 0l-9.4 4.1c-.5.2-.5.9 0 1.1l3.4 1.5v3.9c0 2.1 2.7 3.8 6.3 3.8 3.5 0 6.3-1.6 6.3-3.8v-3.9l.6-.3v6.7c0 .8 1.2.8 1.3 0v-7.2l1.5-.6c.4-.2.4-1-.1-1.2zM20 14.1l7.8 3.4-.6.3-7.1-.9c-.3 0-.7.2-.7.5s.2.7.5.7l5 .6-4.9 2.2c-4.4-1.9-3.5-1.5-7.8-3.4l7.8-3.4zm5 9.3c-.6 3.3-9.4 3.3-10 0V20l4.8 2.1c.2.1.3.1.5 0l4.8-2.1v3.4z" fill="#fff"/></g></svg>