<svg version="1.1" id="Слой_1" xmlns="http://www.w3.org/2000/svg" x="0" y="0" width="40" height="44" xml:space="preserve"><style>.st1{fill:#fff}</style><path d="M40 0H0v40h16l4 4 4-4h16V0z" fill-rule="evenodd" clip-rule="evenodd" fill="#087466"/><path class="st1" d="M16.4 22.9H27c.3 0 .5-.2.6-.4l2.3-8.2c.1-.2 0-.4-.1-.5-.1-.1-.3-.2-.5-.2H15.1l-.4-1.9c-.1-.3-.3-.5-.6-.5h-3.5c-.8 0-.8 1.2 0 1.2h3c.1.3 2 9 2.1 9.5-1.7.7-1.2 3.4.7 3.4H27c.8 0 .8-1.2 0-1.2H16.4c-.7 0-.7-1.2 0-1.2zm12.2-8.2l-2 7h-9.7l-1.6-7h13.3z"/><path class="st1" d="M15.9 27c0 2.3 3.5 2.3 3.5 0-.1-2.3-3.5-2.3-3.5 0zm1.7-.6c.8 0 .8 1.2 0 1.2-.7 0-.7-1.2 0-1.2zM24.1 27c0 2.3 3.5 2.3 3.5 0s-3.4-2.3-3.5 0zm1.8-.6c.8 0 .8 1.2 0 1.2s-.8-1.2 0-1.2z"/></svg>