<svg width="13" height="13" viewBox="0 0 13 13" fill="none" xmlns="http://www.w3.org/2000/svg">
<path d="M5.26242 3.95538L11.6163 6.43117L11.3719 5.84427L5.12937 3.4218L0.466521 12.5344L0.491939 12.7843L6.91614 13L7.34933 12.782L0.891125 12.5223L5.26242 3.95538Z" fill="white"/>
<path d="M11.2692 5.58503L11.0638 5.06655L4.87807 2.4281L0.413 11.525L0.444689 12.0542L5.03093 3.05961L11.2692 5.58503Z" fill="white"/>
<path d="M10.9662 4.83177L10.7757 4.38673L4.6807 1.57624L0.339773 10.4175L0.361557 10.8978L4.81375 2.10982L10.9662 4.83177Z" fill="white"/>
<path d="M10.6241 4.01012L10.4527 3.53557L4.44426 0.655995L0.277015 9.48657L0.323561 10.0892L4.55256 1.06716L10.6241 4.01012Z" fill="white"/>
<path d="M10.3211 3.25686L10.2184 2.99762L4.2865 0L0.218636 8.45261L0.245373 8.95735L4.36012 0.239791L10.3211 3.25686Z" fill="white"/>
<path d="M2.86743 1.80157L0.156618 7.64905L0.177745 8.00186L3.4043 1.10267L2.86743 1.80157Z" fill="white"/>
<path d="M1.70218 3.24398L0.11366 6.81599L0.120587 7.22279L2.10004 2.72718L1.70218 3.24398Z" fill="white"/>
<path d="M0.623442 4.61732L0.04661 5.98797L0.0776378 6.38975L1.14117 3.94793L0.623442 4.61732Z" fill="white"/>
<path d="M0 5.38532L0.0211271 5.73813L0.225514 5.13413L0 5.38532Z" fill="white"/>
<path d="M5.52856 5.02251L11.9342 7.25784L11.7289 6.73935L5.39056 4.46445L1.4102 12.1078L8.03283 12.4352L8.67305 12.123L1.9824 11.7077L5.52856 5.02251Z" fill="white"/>
<path d="M5.82431 6.23658L12.3201 8.17243L12.0808 7.61001L5.6764 5.62955L2.65523 11.1846L9.3756 11.7468L10.0832 11.395L3.30899 10.6909L5.82431 6.23658Z" fill="white"/>
<path d="M6.1152 7.42612L12.687 9.11648L12.4766 8.57352L5.93823 6.79965L4.13147 10.162L10.834 11.0086L11.7004 10.5726L4.97243 9.47622L6.1152 7.42612Z" fill="white"/>
<path d="M12.8924 9.63497L6.26315 8.03315L5.84679 8.7069L12.4753 10.1813L13 9.9187L12.8924 9.63497Z" fill="white"/>
</svg>
