<?xml version="1.0" standalone="no"?>
<!DOCTYPE svg PUBLIC "-//W3C//DTD SVG 20010904//EN"
 "http://www.w3.org/TR/2001/REC-SVG-20010904/DTD/svg10.dtd">
<svg version="1.0" xmlns="http://www.w3.org/2000/svg"
 width="512.000000pt" height="512.000000pt" viewBox="0 0 512.000000 512.000000"
 preserveAspectRatio="xMidYMid meet">
<metadata>
Created by potrace 1.14, written by Peter Selinger 2001-2017
</metadata>
<g transform="translate(0.000000,512.000000) scale(0.100000,-0.100000)"
fill="#000000" stroke="none">
<path d="M0 2560 l0 -2560 2560 0 2560 0 0 2560 0 2560 -2560 0 -2560 0 0
-2560z m3528 1473 c361 -184 383 -196 397 -230 9 -20 14 -37 13 -39 -2 -1
-428 213 -948 477 -520 263 -948 479 -951 479 -3 0 -300 -624 -660 -1386 -621
-1317 -654 -1385 -661 -1348 -17 95 -34 55 623 1419 347 721 640 1329 651
1353 l19 43 567 -287 c312 -158 739 -374 950 -481z m-478 83 l935 -448 27 -74
c14 -41 25 -74 24 -74 -2 0 -434 209 -962 465 -527 256 -964 465 -970 465 -6
0 -315 -647 -685 -1437 l-674 -1438 -8 95 -8 95 649 1375 c357 756 657 1392
667 1412 17 35 19 36 44 24 14 -7 447 -214 961 -460z m-1343 287 c-2 -5 -228
-488 -502 -1076 -313 -670 -502 -1062 -507 -1055 -25 40 -2 93 425 1016 410
883 437 937 506 1027 39 52 74 95 77 95 3 0 3 -3 1 -7z m1420 -563 l962 -444
27 -63 c14 -35 25 -66 22 -68 -2 -2 -442 189 -976 426 -535 236 -976 427 -981
425 -5 -3 -325 -631 -712 -1395 -387 -765 -708 -1386 -712 -1382 -4 4 -7 38
-5 74 3 64 15 90 693 1472 513 1044 694 1405 705 1402 8 -2 448 -204 977 -447z
m44 -231 c530 -226 975 -416 988 -422 17 -8 32 -35 52 -86 16 -41 27 -76 25
-78 -2 -3 -449 176 -992 396 -785 318 -991 398 -999 387 -5 -7 -336 -653 -735
-1435 l-725 -1422 -7 80 -7 81 591 1202 c325 662 646 1317 713 1456 68 138
126 252 128 252 3 0 439 -185 968 -411z m-1884 263 c-7 -16 -145 -330 -307
-699 l-295 -670 -3 61 c-3 61 -1 66 248 626 210 472 260 576 306 637 30 40 56
73 59 73 2 0 -1 -13 -8 -28z m1998 -556 l990 -384 38 -87 c21 -48 36 -90 33
-92 -2 -3 -457 172 -1011 387 -560 219 -1010 389 -1014 384 -14 -15 -1393
-2725 -1390 -2729 2 -1 411 -19 909 -39 498 -20 959 -39 1024 -42 l120 -7 -66
-33 -67 -34 -1022 35 c-562 19 -1024 36 -1026 39 -2 2 -6 19 -9 38 -5 30 68
178 666 1349 771 1506 819 1599 828 1599 4 0 452 -173 997 -384z m-2366 22
c-44 -101 -119 -273 -167 -383 l-87 -200 -3 70 c-3 69 -1 75 87 283 81 191 98
222 167 312 42 55 78 100 80 100 1 0 -34 -82 -77 -182z m2478 -337 l995 -357
34 -83 c18 -46 28 -81 21 -79 -492 174 -2039 710 -2041 707 -7 -10 -1116
-2106 -1122 -2121 -5 -14 -1 -18 17 -18 39 0 1968 -119 2039 -126 l65 -6 -96
-49 -96 -48 -1051 52 c-578 29 -1053 55 -1057 59 -4 3 278 553 626 1222 545
1047 636 1215 652 1210 10 -3 467 -167 1014 -363z m-2715 70 c-27 -83 -42 -95
-42 -35 0 25 10 47 32 75 17 21 32 39 34 39 1 0 -10 -36 -24 -79z m3328 -553
l494 -153 37 -85 c20 -47 34 -86 30 -88 -3 -1 -467 135 -1030 303 -563 168
-1028 304 -1034 302 -5 -1 -188 -320 -407 -707 -370 -655 -397 -705 -377 -712
12 -3 496 -55 1075 -115 578 -59 1052 -110 1052 -113 0 -3 -47 -29 -104 -57
l-104 -52 -1068 90 c-588 49 -1072 90 -1076 92 -5 1 919 1709 954 1763 8 11
69 -7 1558 -468z m-403 -184 c557 -151 1015 -274 1018 -274 6 0 9 -9 51 -117
l23 -61 -107 28 c-228 61 -1980 510 -1989 510 -5 0 -90 -146 -190 -325 -166
-298 -179 -326 -159 -330 26 -6 2103 -345 2119 -346 7 0 -51 -32 -128 -71
l-139 -70 -1059 133 c-582 74 -1063 137 -1069 140 -6 4 101 215 262 515 150
280 279 520 287 532 12 19 20 22 41 17 15 -3 482 -130 1039 -281z m68 -354
c550 -133 1020 -246 1043 -252 39 -10 46 -16 63 -56 11 -25 18 -46 17 -47 -2
-2 -39 -21 -84 -43 l-80 -40 -1050 233 c-577 129 -1054 236 -1061 237 -6 2 17
49 55 110 46 75 71 106 82 103 8 -2 465 -112 1015 -245z"/>
</g>
</svg>
