<svg xmlns="http://www.w3.org/2000/svg" width="28" height="34" style="enable-background:new 0 0 28 34" xml:space="preserve"><path d="M8 1.4c-4.4 0-8 3.6-8 8v12c0 4.4 3.6 8 8 8h3.8l2.6 4.6 2.6-4.6h3c4.4 0 8-3.6 8-8v-12c0-4.4-3.6-8-8-8H8z" style="fill-rule:evenodd;clip-rule:evenodd;fill:#e86f00"/><path d="M19.8 18.8c-.5 0-1 .1-1.4.4-.4.3-.7.7-.9 1.1-.2.5-.2 1-.1 1.4.1.5.3.9.7 1.3.3.3.8.6 1.3.7.5.1 1 0 1.4-.1s.8-.5 1.1-.9c.3-.4.4-.9.4-1.4 0-.7-.3-1.3-.7-1.8-.5-.5-1.1-.7-1.8-.7zm0 3.3c-.2 0-.3 0-.5-.1-.1-.1-.2-.2-.3-.4-.1-.2-.1-.3 0-.5 0-.2.1-.3.2-.4.1-.1.3-.2.4-.2h.5c.2.1.3.2.4.3.1.1.1.3.1.5s-.1.4-.2.6c-.1.1-.3.2-.6.2zm-8.3-3.3c-.5 0-1 .1-1.4.4-.4.3-.7.7-.9 1.1-.2.5-.2 1-.2 1.5.1.5.3.9.7 1.3.3.3.8.6 1.3.7.5.1 1 0 1.4-.1.5-.2.8-.5 1.1-.9.3-.4.4-.9.4-1.4 0-.7-.3-1.3-.7-1.8-.4-.6-1-.8-1.7-.8zm0 3.3c-.2 0-.3 0-.5-.1-.1-.1-.2-.2-.3-.4-.1-.2-.1-.3 0-.5 0-.2.1-.3.2-.4.1-.1.3-.2.4-.2h.5c.2.1.3.2.4.3.1.1.1.3.1.5s-.1.4-.2.6c-.2.1-.4.2-.6.2zm10.8-9.6c0-1.4-.6-2.8-1.6-3.8s-2.4-1.6-3.8-1.6h-.4c-.2 0-.4.1-.6.2-.2.2-.2.4-.2.6v4.2h-5.4l-1-2.8c-.1-.1-.2-.3-.4-.4s-.3-.1-.5-.1H6.5c-.2 0-.4.1-.6.2-.1.2-.2.4-.2.6 0 .2.1.4.2.6.2.2.4.2.6.2h1.4l1 2.8.4 1.1v.1c.4 1 1.1 1.9 2 2.5.9.6 2 .9 3.1.9h2.5c.7 0 1.4-.1 2.1-.4.7-.3 1.3-.7 1.8-1.2s.9-1.1 1.2-1.8c.2-.5.3-1.2.3-1.9zm-2.7 2.7c-.3.3-.8.6-1.2.8-.5.2-.9.3-1.4.3h-2.5c-.7 0-1.5-.2-2.1-.6-.6-.4-1.1-1-1.4-1.7v-.1l-.1-.1h9.6c-.2.5-.5 1-.9 1.4zm-2.3-3.1V8.8c.9.1 1.7.5 2.3 1.1.6.6 1 1.4 1.1 2.3h-3.4z" style="fill:#fff"/></svg>