<svg xmlns="http://www.w3.org/2000/svg" width="42" height="50" style="enable-background:new 0 0 42 50" xml:space="preserve"><path d="M9 2.5c-4.4 0-8 3.6-8 8v24c0 4.4 3.6 8 8 8h8.8l3.7 6.5 3.7-6.5H33c4.4 0 8-3.6 8-8v-24c0-4.4-3.6-8-8-8H9z" style="fill-rule:evenodd;clip-rule:evenodd;fill:#fff"/><path d="m17.8 42.5.4-.2-.1-.3h-.3v.5zm3.7 6.5-.4.2.4.8.4-.8-.4-.2zm3.7-6.5V42h-.3l-.1.3.4.2zm-23.7-32C1.5 6.3 4.9 3 9 3V2C4.3 2 .5 5.8.5 10.5h1zm0 24v-24h-1v24h1zM9 42c-4.1 0-7.5-3.4-7.5-7.5h-1C.5 39.2 4.3 43 9 43v-1zm8.8 0H9v1h8.8v-1zm4.1 6.7-3.7-6.5-.9.5 3.7 6.5.9-.5zm2.8-6.5L21 48.7l.9.5 3.7-6.5-.9-.5zM33 42h-7.8v1H33v-1zm7.5-7.5c0 4.1-3.4 7.5-7.5 7.5v1c4.7 0 8.5-3.8 8.5-8.5h-1zm0-24v24h1v-24h-1zM33 3c4.1 0 7.5 3.4 7.5 7.5h1C41.5 5.8 37.7 2 33 2v1zM9 3h24V2H9v1z" style="fill:#d6d6d6"/><path d="m20 18.2 10.9 4.2-.4-1-10.7-4.1-8 15.4v.4l11 .4.7-.4-11.1-.4L20 18.2z"/><path d="m30.3 20.9-.4-.9-10.6-4.5L11.7 31l.1.9 7.9-15.2 10.6 4.2z"/><path d="m29.8 19.7-.3-.8L19 14.2l-7.4 14.9v.8l7.6-14.8 10.6 4.6z"/><path d="m29.2 18.3-.3-.8-10.3-4.9-7.1 14.9.1 1 7.2-15.2 10.4 5z"/><path d="m28.7 17-.2-.4-10.2-5.1-7 14.3v.9L18.4 12l10.3 5zm-12.8-2.4-4.6 9.9v.6l5.5-11.6-.9 1.1zm-2 2.4-2.7 6v.7l3.4-7.6-.7.9zM12 19.3l-1 2.3.1.7 1.8-4.1-.9 1.1zm-1 1.3v.6l.3-1-.3.4z"/><path d="m20.4 20 11 3.8-.4-.9L20.2 19l-6.8 12.9 11.4.6 1.1-.5-11.5-.7 6-11.3z"/><path d="M20.9 22 32 25.3l-.4-.9-11-3.3-5.2 9.4 11.6.8 1.2-.6-11.6-1.2 4.3-7.5z"/><path d="m21.4 24 11.3 2.9-.4-.9-11.2-3-3.1 5.7 11.5 1.4 1.5-.7-11.5-1.8 1.9-3.6z"/><path d="m33.1 27.8-11.4-2.7-.7 1.1 11.4 2.5.9-.4c-.1-.1-.2-.5-.2-.5z"/></svg>