<svg xmlns="http://www.w3.org/2000/svg" width="28" height="34" style="enable-background:new 0 0 28 34" xml:space="preserve"><path d="M8 1.4c-4.4 0-8 3.6-8 8v12c0 4.4 3.6 8 8 8h3.8l2.6 4.6 2.6-4.6h3c4.4 0 8-3.6 8-8v-12c0-4.4-3.6-8-8-8H8z" style="fill-rule:evenodd;clip-rule:evenodd;fill:#144fa7"/><path d="M15.7 14.6h-.8v-.8c0-.2-.1-.4-.2-.6-.2-.2-.4-.2-.6-.2s-.4.1-.6.2c-.2.2-.2.4-.2.6v.8h-.8c-.2 0-.4.1-.6.2-.2.2-.2.4-.2.6s.1.4.2.6c.2.2.4.2.6.2h.8v.8c0 .2.1.4.2.6.2.2.4.2.6.2s.4-.1.6-.2c.2-.2.2-.4.2-.6v-.8h.8c.2 0 .4-.1.6-.2.2-.2.2-.4.2-.6s-.1-.4-.2-.6c-.2-.1-.4-.2-.6-.2zm5.1-5c-.9-.9-2.1-1.4-3.3-1.5-1.3-.1-2.5.3-3.5 1-1.1-.8-2.4-1.1-3.7-1-1.3.2-2.5.8-3.4 1.8-.9 1-1.3 2.3-1.3 3.6.1 1.3.6 2.6 1.5 3.5l5 5c.5.5 1.1.7 1.8.7s1.3-.3 1.8-.7l5-5c.5-.5.9-1.1 1.2-1.7.3-.6.4-1.3.4-2s-.1-1.4-.4-2c-.2-.6-.6-1.2-1.1-1.7zm-1.2 6.2-5 5c-.1.1-.2.1-.3.2-.1 0-.2.1-.3.1-.1 0-.2 0-.3-.1-.1 0-.2-.1-.3-.2l-5-5c-.7-.7-1-1.6-1-2.5 0-.9.4-1.8 1-2.5.7-.7 1.6-1 2.5-1 .9 0 1.8.4 2.5 1 .1.1.2.1.3.2.1 0 .2.1.3.1.1 0 .2 0 .3-.1.1 0 .2-.1.3-.2.7-.7 1.6-1 2.5-1 .9 0 1.8.4 2.5 1 .7.7 1 1.6 1 2.5.1 1-.3 1.9-1 2.5z" style="fill:#fff"/></svg>