<svg xmlns="http://www.w3.org/2000/svg" width="28" height="34" style="enable-background:new 0 0 28 34" xml:space="preserve"><path d="M8 1.4c-4.4 0-8 3.6-8 8v12c0 4.4 3.6 8 8 8h3.8l2.6 4.6 2.6-4.6h3c4.4 0 8-3.6 8-8v-12c0-4.4-3.6-8-8-8H8z" style="fill-rule:evenodd;clip-rule:evenodd;fill:#b12000"/><path d="m21.9 13.9-.8-.5-7.5-4.2h-.9l-7.5 4.2-.3.3c-.1.1-.1.3-.1.4s0 .3.1.4l.3.3L7.3 16v4c0 .7.3 1.3.7 1.8.5.5 1.1.7 1.8.7h6.7c.7 0 1.3-.3 1.8-.7.5-.5.7-1.1.7-1.8v-3.9l1.7-.9v2.4c0 .2.1.4.2.6.2.2.4.2.6.2.2 0 .4-.1.6-.2s.2-.4.2-.6v-2.9c0-.1 0-.3-.1-.4-.1-.2-.2-.3-.3-.4zM17.3 20c0 .2-.1.4-.2.6s-.4.2-.6.2H9.8c-.2 0-.4-.1-.6-.2-.1-.1-.2-.3-.2-.6v-3l3.8 2.1h.8l3.8-2.1v3zm-4.1-2.6-5.8-3.2 5.8-3.2 5.8 3.2-5.8 3.2z" style="fill:#fff"/></svg>