<svg version="1.1" id="Слой_1" xmlns="http://www.w3.org/2000/svg" x="0" y="0" width="28" height="34" style="enable-background:new 0 0 28 34" xml:space="preserve"><style>.st1{fill:#fff}</style><path d="M8 1.4c-4.4 0-8 3.6-8 8v12c0 4.4 3.6 8 8 8h3.8l2.6 4.6 2.6-4.6h3c4.4 0 8-3.6 8-8v-12c0-4.4-3.6-8-8-8H8z" style="fill-rule:evenodd;clip-rule:evenodd;fill:#727272"/><path class="st1" d="M20.4 24.6c-1.1 0-1.9-.9-1.9-1.9s.9-1.9 1.9-1.9c1.1 0 1.9.9 1.9 1.9s-.9 1.9-1.9 1.9zm0-2c-.1 0-.1.1 0 0-.1.2.1.2 0 0 .1.1 0 0 0 0zM11.3 24.6c-1.1 0-1.9-.9-1.9-1.9s.9-1.9 1.9-1.9 1.9.9 1.9 1.9-.9 1.9-1.9 1.9zm0-2c-.1 0-.1.1 0 0-.1.2.1.2 0 0 .1.1 0 0 0 0zM12.2 19.2c-.5 0-1.1-.2-1.5-.5-.5-.4-.8-.9-.9-1.4l-1.2-6.1v-.1L8 8.3H5.8c-.6 0-1-.4-1-1s.4-1 1-1h3c.5 0 .9.3 1 .8l.6 2.8h11.8c.3 0 .6.1.8.4.2.2.3.5.2.8L22 17.2c-.1.6-.4 1.1-.9 1.4-.5.4-1 .6-1.6.5l-7.3.1c.1 0 0 0 0 0zm-1.4-7.3 1 4.9c0 .1.1.2.2.3.1.1.2.1.3.1h7.2c.1 0 .3 0 .3-.1.1-.1.1-.2.2-.3l1-4.9H10.8z"/></svg>