<svg xmlns="http://www.w3.org/2000/svg" width="28" height="34" style="enable-background:new 0 0 28 34" xml:space="preserve"><path d="M8 1.4c-4.4 0-8 3.6-8 8v12c0 4.4 3.6 8 8 8h3.8l2.6 4.6 2.6-4.6h3c4.4 0 8-3.6 8-8v-12c0-4.4-3.6-8-8-8H8z" style="fill-rule:evenodd;clip-rule:evenodd;fill:#d8000d"/><path d="M14 7.1c-1.4 0-2.8.4-4 1-1.2.7-2.3 1.6-3 2.8-1.1 1.7-1.5 3.6-1.2 5.6.3 2 1.2 3.8 2.7 5.1s3.4 2.1 5.3 2.1c2 .1 3.9-.6 5.4-1.8 1.3-1.1 2.3-2.6 2.8-4.2.5-1.7.4-3.4-.2-5-.6-1.6-1.6-3-3-4S15.7 7.1 14 7.1zM15.7 9c1.2.3 2.2.9 3 1.7s1.4 1.9 1.7 3c-1.4 0-2.8.4-4 1.2-.6-.7-1.3-1.3-2-1.8.8-1.2 1.2-2.7 1.3-4.1zM14 8.8c0 1.2-.3 2.4-.9 3.4-.1-.1-.2-.1-.4-.2-1.1-.6-2.2-1-3.4-1.2.6-.6 1.4-1.1 2.2-1.5.8-.3 1.6-.5 2.5-.5zm-5.8 3.4c1.3.2 2.6.6 3.7 1.2l.1.1c-.6.6-1.3 1.1-2.1 1.4s-1.7.5-2.5.5c-.1-1.1.2-2.2.8-3.2zm4.1 9.7c-1.2-.3-2.2-.9-3-1.7-.8-.8-1.4-1.9-1.7-3 1.1 0 2.2-.3 3.2-.7 1-.5 1.9-1.1 2.7-1.9.6.4 1.2.9 1.7 1.5-.8.8-1.5 1.7-2 2.7-.6.9-.8 2-.9 3.1zm1.7.2c0-.9.2-1.8.6-2.7.4-.8.9-1.6 1.6-2.2 0 .1.1.1.1.2.7 1.1 1.2 2.2 1.5 3.5-1.1.8-2.4 1.2-3.8 1.2zm5.2-2.5c-.4-1.1-.9-2.2-1.5-3.1l-.2-.2c1-.5 2.1-.8 3.2-.8 0 1.5-.6 2.9-1.5 4.1z" style="fill:#fff"/></svg>